0
SECTION
2
HEADER
9
$INSUNITS
70
4
9
$ACADVER
1
AC1014
9
$HANDSEED
5
FFFF
0
ENDSEC
0
SECTION
2
TABLES
0
TABLE
2
VPORT
5
8
100
AcDbSymbolTable
0
ENDTAB
0
TABLE
2
LTYPE
5
5
100
AcDbSymbolTable
0
LTYPE
5
14
100
AcDbSymbolTableRecord
100
AcDbLinetypeTableRecord
2
BYBLOCK
70
0
0
LTYPE
5
15
100
AcDbSymbolTableRecord
100
AcDbLinetypeTableRecord
2
BYLAYER
70
0
0
LTYPE
5
16
100
AcDbSymbolTableRecord
100
AcDbLinetypeTableRecord
2
DASHED
70
0
3
Dashed __ __ __ __ __ __ __ __ __ __ __ __ __ _
72
65
73
2
40
0.75
49
0.5
74
0
49
-0.25
74
0
0
ENDTAB
0
TABLE
2
LAYER
5
2
100
AcDbSymbolTable
70
3
0
LAYER
5
50
100
AcDbSymbolTableRecord
100
AcDbLayerTableRecord
2
1
70
0
62
7
6
DASHED
0
LAYER
5
51
100
AcDbSymbolTableRecord
100
AcDbLayerTableRecord
2
0
70
0
62
7
6
CONTINUOUS
0
ENDTAB
0
TABLE
2
STYLE
5
3
100
AcDbSymbolTable
70
1
0
STYLE
5
11
100
AcDbSymbolTableRecord
100
AcDbTextStyleTableRecord
2
STANDARD
70
0
0
ENDTAB
0
TABLE
2
VIEW
5
6
100
AcDbSymbolTable
70
0
0
ENDTAB
0
TABLE
2
UCS
5
7
100
AcDbSymbolTable
70
0
0
ENDTAB
0
TABLE
2
APPID
5
9
100
AcDbSymbolTable
70
2
0
APPID
5
12
100
AcDbSymbolTableRecord
100
AcDbRegAppTableRecord
2
ACAD
70
0
0
ENDTAB
0
TABLE
2
DIMSTYLE
5
A
100
AcDbSymbolTable
70
1
0
ENDTAB
0
TABLE
2
BLOCK_RECORD
5
1
100
AcDbSymbolTable
70
1
0
BLOCK_RECORD
5
1F
100
AcDbSymbolTableRecord
100
AcDbBlockTableRecord
2
*MODEL_SPACE
0
BLOCK_RECORD
5
1B
100
AcDbSymbolTableRecord
100
AcDbBlockTableRecord
2
*PAPER_SPACE
0
ENDTAB
0
ENDSEC
0
SECTION
2
BLOCKS
0
BLOCK
5
20
100
AcDbEntity
100
AcDbBlockBegin
2
*MODEL_SPACE
0
ENDBLK
5
21
100
AcDbEntity
100
AcDbBlockEnd
0
BLOCK
5
1C
100
AcDbEntity
100
AcDbBlockBegin
2
*PAPER_SPACE
0
ENDBLK
5
1D
100
AcDbEntity
100
AcDbBlockEnd
0
ENDSEC
0
SECTION
2
ENTITIES
0
POINT
5
100
100
AcDbEntity
8
0
100
AcDbPoint
10
-159.64999999999998
20
212.5
30
0
0
POINT
5
101
100
AcDbEntity
8
0
100
AcDbPoint
10
-20.780253405868798
20
212.5
30
0
0
POINT
5
102
100
AcDbEntity
8
0
100
AcDbPoint
10
-212.5
20
159.64999999999998
30
0
0
POINT
5
103
100
AcDbEntity
8
0
100
AcDbPoint
10
-212.5
20
20.780253405868997
30
0
0
ARC
5
104
100
AcDbEntity
8
1
100
AcDbCircle
10
-202.25000000000006
20
-190.78509315503706
30
0
40
1.9999999999999218
210
0
220
0
230
1
100
AcDbArc
50
180
51
246.62289542840273
0
ARC
5
105
100
AcDbEntity
8
1
100
AcDbCircle
10
-210.97918471982797
20
-210.97918471982697
30
0
40
20
210
0
220
-0
230
1
100
AcDbArc
50
23.377104571595385
51
66.622895428401847
0
ARC
5
106
100
AcDbEntity
8
1
100
AcDbCircle
10
-190.78509315503763
20
-202.25000000000006
30
0
40
1.9999999999999296
210
0
220
0
230
1
100
AcDbArc
50
203.37710457159392
51
270.0000000000008
0
LINE
5
107
100
AcDbEntity
8
1
100
AcDbLine
10
-190.7850931550376
20
-204.24999999999997
30
0
11
-166.25
21
-204.24999999999997
31
0
0
ARC
5
108
100
AcDbEntity
8
1
100
AcDbCircle
10
-166.24999999999997
20
-206.24999999999997
30
0
40
1.9999999999999574
210
0
220
0
230
1
100
AcDbArc
50
0
51
90.00000000000081
0
LINE
5
109
100
AcDbEntity
8
1
100
AcDbLine
10
-164.25
20
-206.25
30
0
11
-164.25
21
-219.25
31
0
0
ARC
5
110
100
AcDbEntity
8
1
100
AcDbCircle
10
-162.25
20
-219.25
30
0
40
1.9999999999999929
210
0
220
0
230
1
100
AcDbArc
50
180
51
270
0
LINE
5
111
100
AcDbEntity
8
1
100
AcDbLine
10
-162.25
20
-221.25
30
0
11
162.25
21
-221.25
31
0
0
ARC
5
112
100
AcDbEntity
8
1
100
AcDbCircle
10
162.25
20
-219.25
30
0
40
1.9999999999999929
210
-0
220
0
230
1
100
AcDbArc
50
-90
51
0
0
LINE
5
113
100
AcDbEntity
8
1
100
AcDbLine
10
164.25
20
-219.25
30
0
11
164.25
21
-206.25
31
0
0
ARC
5
114
100
AcDbEntity
8
1
100
AcDbCircle
10
166.24999999999997
20
-206.24999999999997
30
0
40
1.9999999999999574
210
0
220
-0
230
1
100
AcDbArc
50
89.99999999999919
51
180
0
LINE
5
115
100
AcDbEntity
8
1
100
AcDbLine
10
166.25
20
-204.25
30
0
11
190.78509315503703
21
-204.24999999999997
31
0
0
ARC
5
116
100
AcDbEntity
8
1
100
AcDbCircle
10
190.78509315503706
20
-202.25000000000006
30
0
40
1.9999999999999218
210
0
220
0
230
1
100
AcDbArc
50
269.9999999999992
51
336.62289542840273
0
ARC
5
117
100
AcDbEntity
8
1
100
AcDbCircle
10
210.9791847198272
20
-210.97918471982814
30
0
40
20.000000000000249
210
0
220
0
230
1
100
AcDbArc
50
113.37710457159581
51
156.62289542840165
0
ARC
5
118
100
AcDbEntity
8
1
100
AcDbCircle
10
202.25000000000006
20
-190.78509315503763
30
0
40
1.9999999999999296
210
0
220
0
230
1
100
AcDbArc
50
-66.622895428406068
51
0
0
LINE
5
119
100
AcDbEntity
8
1
100
AcDbLine
10
204.24999999999997
20
-190.7850931550376
30
0
11
204.24999999999997
21
-166.25
31
0
0
ARC
5
120
100
AcDbEntity
8
1
100
AcDbCircle
10
206.24999999999997
20
-166.24999999999997
30
0
40
1.9999999999999574
210
0
220
-0
230
1
100
AcDbArc
50
89.99999999999919
51
180
0
LINE
5
121
100
AcDbEntity
8
1
100
AcDbLine
10
206.25
20
-164.25
30
0
11
219.25
21
-164.25
31
0
0
ARC
5
122
100
AcDbEntity
8
1
100
AcDbCircle
10
219.25
20
-162.25
30
0
40
1.9999999999999929
210
-0
220
0
230
1
100
AcDbArc
50
-90
51
0
0
LINE
5
123
100
AcDbEntity
8
1
100
AcDbLine
10
221.25
20
-162.25
30
0
11
221.25
21
162.25
31
0
0
ARC
5
124
100
AcDbEntity
8
1
100
AcDbCircle
10
219.25
20
162.25
30
0
40
1.9999999999999929
210
0
220
-0
230
1
100
AcDbArc
50
0
51
90
0
LINE
5
125
100
AcDbEntity
8
1
100
AcDbLine
10
219.25
20
164.25
30
0
11
206.25
21
164.25
31
0
0
ARC
5
126
100
AcDbEntity
8
1
100
AcDbCircle
10
206.24999999999997
20
166.24999999999997
30
0
40
1.9999999999999574
210
0
220
0
230
1
100
AcDbArc
50
180
51
270.0000000000008
0
LINE
5
127
100
AcDbEntity
8
1
100
AcDbLine
10
204.25
20
166.25
30
0
11
204.24999999999997
21
190.78509315503703
31
0
0
ARC
5
128
100
AcDbEntity
8
1
100
AcDbCircle
10
202.25000000000006
20
190.78509315503706
30
0
40
1.9999999999999218
210
0
220
0
230
1
100
AcDbArc
50
0
51
66.622895428402785
0
ARC
5
129
100
AcDbEntity
8
1
100
AcDbCircle
10
210.97918471982794
20
210.979184719827
30
0
40
20
210
0
220
0
230
1
100
AcDbArc
50
203.3771045715954
51
246.62289542840193
0
ARC
5
130
100
AcDbEntity
8
1
100
AcDbCircle
10
190.7850931550376
20
202.25000000000006
30
0
40
1.9999999999999438
210
0
220
-0
230
1
100
AcDbArc
50
23.377104571594664
51
90.000000000001634
0
LINE
5
131
100
AcDbEntity
8
1
100
AcDbLine
10
190.78509315503754
20
204.24999999999997
30
0
11
166.25
21
204.24999999999997
31
0
0
ARC
5
132
100
AcDbEntity
8
1
100
AcDbCircle
10
166.24999999999997
20
206.24999999999997
30
0
40
1.9999999999999574
210
0
220
0
230
1
100
AcDbArc
50
180
51
270.0000000000008
0
LINE
5
133
100
AcDbEntity
8
1
100
AcDbLine
10
164.25
20
206.25
30
0
11
164.25
21
219.25
31
0
0
ARC
5
134
100
AcDbEntity
8
1
100
AcDbCircle
10
162.25
20
219.25
30
0
40
1.9999999999999929
210
0
220
-0
230
1
100
AcDbArc
50
0
51
90
0
LINE
5
135
100
AcDbEntity
8
1
100
AcDbLine
10
162.25
20
221.25
30
0
11
-162.25
21
221.25
31
0
0
ARC
5
136
100
AcDbEntity
8
1
100
AcDbCircle
10
-162.25
20
219.25
30
0
40
1.9999999999999929
210
0
220
-0
230
1
100
AcDbArc
50
90
51
180
0
LINE
5
137
100
AcDbEntity
8
1
100
AcDbLine
10
-164.25
20
219.25
30
0
11
-164.25
21
206.25
31
0
0
ARC
5
138
100
AcDbEntity
8
1
100
AcDbCircle
10
-166.24999999999997
20
206.24999999999997
30
0
40
1.9999999999999574
210
0
220
0
230
1
100
AcDbArc
50
-90.00000000000081
51
0
0
LINE
5
139
100
AcDbEntity
8
1
100
AcDbLine
10
-166.25
20
204.25
30
0
11
-190.78509315503703
21
204.24999999999997
31
0
0
ARC
5
140
100
AcDbEntity
8
1
100
AcDbCircle
10
-190.78509315503706
20
202.25000000000006
30
0
40
1.9999999999999218
210
0
220
-0
230
1
100
AcDbArc
50
89.99999999999919
51
156.62289542840276
0
ARC
5
141
100
AcDbEntity
8
1
100
AcDbCircle
10
-210.979184719827
20
210.97918471982794
30
0
40
20
210
-0
220
0
230
1
100
AcDbArc
50
293.37710457159534
51
336.62289542840193
0
ARC
5
142
100
AcDbEntity
8
1
100
AcDbCircle
10
-202.25000000000006
20
190.7850931550376
30
0
40
1.9999999999999438
210
0
220
0
230
1
100
AcDbArc
50
113.37710457159469
51
180
0
LINE
5
143
100
AcDbEntity
8
1
100
AcDbLine
10
-204.24999999999997
20
190.78509315503754
30
0
11
-204.24999999999997
21
166.25
31
0
0
ARC
5
144
100
AcDbEntity
8
1
100
AcDbCircle
10
-206.24999999999997
20
166.24999999999997
30
0
40
1.9999999999999574
210
0
220
0
230
1
100
AcDbArc
50
-90.00000000000081
51
0
0
LINE
5
145
100
AcDbEntity
8
1
100
AcDbLine
10
-206.25
20
164.25
30
0
11
-219.25
21
164.25
31
0
0
ARC
5
146
100
AcDbEntity
8
1
100
AcDbCircle
10
-219.25
20
162.25
30
0
40
1.9999999999999929
210
0
220
-0
230
1
100
AcDbArc
50
90
51
180
0
LINE
5
147
100
AcDbEntity
8
1
100
AcDbLine
10
-221.25
20
162.25
30
0
11
-221.25
21
-162.25
31
0
0
ARC
5
148
100
AcDbEntity
8
1
100
AcDbCircle
10
-219.25
20
-162.25
30
0
40
1.9999999999999929
210
0
220
0
230
1
100
AcDbArc
50
180
51
270
0
LINE
5
149
100
AcDbEntity
8
1
100
AcDbLine
10
-219.25
20
-164.25
30
0
11
-206.25
21
-164.25
31
0
0
ARC
5
150
100
AcDbEntity
8
1
100
AcDbCircle
10
-206.24999999999997
20
-166.24999999999997
30
0
40
1.9999999999999574
210
0
220
0
230
1
100
AcDbArc
50
0
51
90.00000000000081
0
LINE
5
151
100
AcDbEntity
8
1
100
AcDbLine
10
-204.25
20
-166.25
30
0
11
-204.24999999999997
21
-190.78509315503703
31
0
0
CIRCLE
5
152
100
AcDbEntity
8
1
100
AcDbCircle
10
-212.5
20
-20.780253405868798
30
0
40
1.7500000000000002
210
0
220
-0
230
1
0
CIRCLE
5
153
100
AcDbEntity
8
1
100
AcDbCircle
10
-160.14999999999998
20
-212.5
30
0
40
1.7500000000000002
210
0
220
-0
230
1
0
CIRCLE
5
154
100
AcDbEntity
8
1
100
AcDbCircle
10
212.5
20
160.14999999999998
30
0
40
1.7500000000000002
210
0
220
-0
230
1
0
CIRCLE
5
155
100
AcDbEntity
8
1
100
AcDbCircle
10
212.5
20
-20.780253405868798
30
0
40
1.7500000000000002
210
0
220
0
230
1
0
CIRCLE
5
156
100
AcDbEntity
8
1
100
AcDbCircle
10
160.14999999999998
20
212.5
30
0
40
1.7500000000000002
210
0
220
-0
230
1
0
CIRCLE
5
157
100
AcDbEntity
8
1
100
AcDbCircle
10
20.780253405868997
20
212.5
30
0
40
1.7500000000000002
210
0
220
-0
230
1
0
CIRCLE
5
158
100
AcDbEntity
8
1
100
AcDbCircle
10
212.5
20
20.780253405868798
30
0
40
1.7500000000000002
210
0
220
-0
230
1
0
CIRCLE
5
159
100
AcDbEntity
8
1
100
AcDbCircle
10
212.5
20
-160.14999999999998
30
0
40
1.7500000000000002
210
0
220
0
230
1
0
CIRCLE
5
160
100
AcDbEntity
8
1
100
AcDbCircle
10
160.14999999999998
20
-212.5
30
0
40
1.7500000000000002
210
0
220
0
230
1
0
CIRCLE
5
161
100
AcDbEntity
8
1
100
AcDbCircle
10
20.780253405868901
20
-212.5
30
0
40
1.7500000000000002
210
0
220
0
230
1
0
CIRCLE
5
162
100
AcDbEntity
8
1
100
AcDbCircle
10
-20.780253405868901
20
-212.5
30
0
40
1.7500000000000002
210
0
220
-0
230
1
0
CIRCLE
5
163
100
AcDbEntity
8
1
100
AcDbCircle
10
-212.5
20
-160.14999999999998
30
0
40
1.7500000000000002
210
0
220
-0
230
1
0
CIRCLE
5
164
100
AcDbEntity
8
1
100
AcDbCircle
10
-212.5
20
20.780253405868997
30
0
40
1.7500000000000002
210
0
220
0
230
1
0
CIRCLE
5
165
100
AcDbEntity
8
1
100
AcDbCircle
10
-212.5
20
160.14999999999998
30
0
40
1.7500000000000002
210
0
220
0
230
1
0
CIRCLE
5
166
100
AcDbEntity
8
1
100
AcDbCircle
10
-20.780253405868798
20
212.5
30
0
40
1.7500000000000002
210
0
220
0
230
1
0
CIRCLE
5
167
100
AcDbEntity
8
1
100
AcDbCircle
10
-160.14999999999998
20
212.5
30
0
40
1.7500000000000002
210
0
220
0
230
1
0
LWPOLYLINE
5
168
100
AcDbEntity
8
0
100
AcDbPolyline
90
4
70
1
43
0.0
10
-160.64999999999998
20
210.75
10
-158.64999999999998
20
210.75
42
0.99999999999999989
10
-158.64999999999998
20
214.25
10
-160.64999999999998
20
214.25
42
0.99999999999999989
0
LINE
5
169
100
AcDbEntity
8
1
100
AcDbLine
10
-160.64999999999998
20
212.5
30
0
11
-158.64999999999998
21
212.5
31
0
0
LWPOLYLINE
5
170
100
AcDbEntity
8
0
100
AcDbPolyline
90
4
70
1
43
0.0
10
-21.780253405868798
20
210.75
10
-19.780253405868798
20
210.75
42
0.99999999999999989
10
-19.780253405868798
20
214.25
10
-21.780253405868798
20
214.25
42
0.99999999999999989
0
LINE
5
171
100
AcDbEntity
8
1
100
AcDbLine
10
-21.780253405868798
20
212.5
30
0
11
-19.780253405868798
21
212.5
31
0
0
LWPOLYLINE
5
172
100
AcDbEntity
8
0
100
AcDbPolyline
90
4
70
1
43
0.0
10
-214.25
20
160.64999999999998
10
-214.25
20
158.64999999999998
42
0.99999999999999989
10
-210.75
20
158.64999999999998
10
-210.75
20
160.64999999999998
42
0.99999999999999989
0
LINE
5
173
100
AcDbEntity
8
1
100
AcDbLine
10
-212.5
20
160.64999999999998
30
0
11
-212.5
21
158.64999999999998
31
0
0
LWPOLYLINE
5
174
100
AcDbEntity
8
0
100
AcDbPolyline
90
4
70
1
43
0.0
10
-214.25
20
21.780253405868997
10
-214.25
20
19.780253405868997
42
0.99999999999999989
10
-210.75
20
19.780253405868997
10
-210.75
20
21.780253405868997
42
0.99999999999999989
0
LINE
5
175
100
AcDbEntity
8
1
100
AcDbLine
10
-212.5
20
21.780253405868997
30
0
11
-212.5
21
19.780253405868997
31
0
0
ENDSEC
0
SECTION
2
OBJECTS
0
DICTIONARY
5
C
100
AcDbDictionary
3
ACAD_GROUP
350
D
3
ACAD_MLINESTYLE
350
17
0
DICTIONARY
5
D
100
AcDbDictionary
0
DICTIONARY
5
1A
330
C
100
AcDbDictionary
0
DICTIONARY
5
17
100
AcDbDictionary
0
ENDSEC
0
EOF
