0
SECTION
2
HEADER
9
$INSUNITS
70
4
9
$ACADVER
1
AC1014
9
$HANDSEED
5
FFFF
0
ENDSEC
0
SECTION
2
TABLES
0
TABLE
2
VPORT
5
8
100
AcDbSymbolTable
0
ENDTAB
0
TABLE
2
LTYPE
5
5
100
AcDbSymbolTable
0
LTYPE
5
14
100
AcDbSymbolTableRecord
100
AcDbLinetypeTableRecord
2
BYBLOCK
70
0
0
LTYPE
5
15
100
AcDbSymbolTableRecord
100
AcDbLinetypeTableRecord
2
BYLAYER
70
0
0
LTYPE
5
16
100
AcDbSymbolTableRecord
100
AcDbLinetypeTableRecord
2
DASHED
70
0
3
Dashed __ __ __ __ __ __ __ __ __ __ __ __ __ _
72
65
73
2
40
0.75
49
0.5
74
0
49
-0.25
74
0
0
ENDTAB
0
TABLE
2
LAYER
5
2
100
AcDbSymbolTable
70
3
0
LAYER
5
50
100
AcDbSymbolTableRecord
100
AcDbLayerTableRecord
2
1
70
0
62
7
6
DASHED
0
LAYER
5
51
100
AcDbSymbolTableRecord
100
AcDbLayerTableRecord
2
0
70
0
62
7
6
CONTINUOUS
0
ENDTAB
0
TABLE
2
STYLE
5
3
100
AcDbSymbolTable
70
1
0
STYLE
5
11
100
AcDbSymbolTableRecord
100
AcDbTextStyleTableRecord
2
STANDARD
70
0
0
ENDTAB
0
TABLE
2
VIEW
5
6
100
AcDbSymbolTable
70
0
0
ENDTAB
0
TABLE
2
UCS
5
7
100
AcDbSymbolTable
70
0
0
ENDTAB
0
TABLE
2
APPID
5
9
100
AcDbSymbolTable
70
2
0
APPID
5
12
100
AcDbSymbolTableRecord
100
AcDbRegAppTableRecord
2
ACAD
70
0
0
ENDTAB
0
TABLE
2
DIMSTYLE
5
A
100
AcDbSymbolTable
70
1
0
ENDTAB
0
TABLE
2
BLOCK_RECORD
5
1
100
AcDbSymbolTable
70
1
0
BLOCK_RECORD
5
1F
100
AcDbSymbolTableRecord
100
AcDbBlockTableRecord
2
*MODEL_SPACE
0
BLOCK_RECORD
5
1B
100
AcDbSymbolTableRecord
100
AcDbBlockTableRecord
2
*PAPER_SPACE
0
ENDTAB
0
ENDSEC
0
SECTION
2
BLOCKS
0
BLOCK
5
20
100
AcDbEntity
100
AcDbBlockBegin
2
*MODEL_SPACE
0
ENDBLK
5
21
100
AcDbEntity
100
AcDbBlockEnd
0
BLOCK
5
1C
100
AcDbEntity
100
AcDbBlockBegin
2
*PAPER_SPACE
0
ENDBLK
5
1D
100
AcDbEntity
100
AcDbBlockEnd
0
ENDSEC
0
SECTION
2
ENTITIES
0
LWPOLYLINE
5
100
100
AcDbEntity
8
0
100
AcDbPolyline
90
62
70
1
43
0.0
10
-221.99999999999994
20
288.79999999999916
42
0.41421356237307422
10
-222.99999999999997
20
287.7999999999991
10
-222.99999999999997
20
276.99999999999807
42
0.41421356237311063
10
-221.00000000000236
20
275.00000000000045
10
-215.00000000000108
20
275.00000000000051
42
-0.41421356237309503
10
-212.00000000000088
20
272.00000000000034
10
-212.00000000000088
20
28.124999999999964
42
0.4142135623730937
10
-210.00000000000088
20
26.124999999999972
10
-196.875
20
26.124999999999986
42
-0.41421356237309553
10
-188.87500000000003
20
18.125
10
-188.87499999999974
20
4.9999999999999831
42
0.41421356237308282
10
-186.87499999999977
20
3.0000000000000311
10
186.87499999999994
20
2.9999999999999676
42
0.41421356237308943
10
188.87499999999991
20
4.9999999999999298
10
188.8750000000002
20
18.125000000000352
42
-0.41421356237309392
10
196.87500000000014
20
26.125000000000327
10
212.00000000000017
20
26.125000000000327
10
211.99999999999994
20
45.000000000000057
42
0.41421356237309764
10
209.99999999999994
20
47.000000000000064
10
208.99999999999991
20
47.000000000000021
42
-0.41421356237309503
10
206.99999999999989
20
49.00000000000005
10
206.99999999999989
20
96.999999999999886
42
-0.41421356237309764
10
208.99999999999991
20
98.999999999999915
10
209.99999999999997
20
98.999999999999915
42
0.41421356237308721
10
211.99999999999994
20
100.99999999999987
10
212
20
297.00000000000011
42
0.41421356237310542
10
210
20
299.00000000000011
10
208.99999999999983
20
299.00000000000011
42
-0.41421356237309503
10
206.99999999999989
20
301.00000000000011
10
206.99999999999986
20
348.99999999999989
42
-0.41421356237309503
10
208.99999999999989
20
350.99999999999994
10
209.99999999999997
20
350.99999999999994
42
0.41421356237309503
10
212
20
353
10
212
20
549
42
0.41421356237308982
10
210
20
551.00000000000011
10
209.00000000000003
20
551.00000000000011
42
-0.41421356237309503
10
207.00000000000003
20
553.00000000000011
10
207.00000000000003
20
601
42
-0.41421356237308982
10
209.00000000000017
20
603.00000000000011
10
209.99999999999997
20
603.00000000000011
42
0.41421356237309503
10
212
20
605.00000000000011
10
212.00000000000017
20
623.87499999999955
10
196.87500000000014
20
623.87499999999966
42
-0.4142135623730937
10
188.8750000000002
20
631.87499999999966
10
188.87499999999994
20
645
42
0.41421356237309503
10
186.87499999999994
20
647
10
-186.87499999999972
20
647
42
0.41421356237309503
10
-188.87499999999972
20
645
10
-188.87500000000003
20
631.875
42
-0.41421356237309503
10
-196.875
20
623.875
10
-210
20
623.875
42
0.41421356237309503
10
-212.00000000000003
20
621.875
10
-212.00000000000003
20
378.0000000000004
42
-0.41421356237309503
10
-215
20
375.00000000000045
10
-220.99999999999989
20
375.00000000000045
42
0.41421356237310025
10
-222.99999999999997
20
373.0000000000004
10
-222.99999999999997
20
362.19999999999919
42
0.41421356237313667
10
-221.99999999999994
20
361.19999999999919
10
-215.00000000000171
20
361.19999999999919
42
-0.41421356237309503
10
-208.80000000000163
20
354.99999999999909
10
-208.8000000000016
20
294.9999999999992
42
-0.4142135623730967
10
-215.00000000000173
20
288.7999999999991
0
CIRCLE
5
101
100
AcDbEntity
8
0
100
AcDbCircle
10
184.00000000000023
20
15.000000000000355
30
0
40
1.6499999999999915
210
0
220
-0
230
1
0
CIRCLE
5
102
100
AcDbEntity
8
0
100
AcDbCircle
10
200.00000000000014
20
31.000000000000298
30
0
40
1.6499999999999915
210
0
220
-0
230
1
0
CIRCLE
5
103
100
AcDbEntity
8
0
100
AcDbCircle
10
184.00000000000023
20
634.99999999999966
30
0
40
1.6499999999999915
210
0
220
0
230
1
0
CIRCLE
5
104
100
AcDbEntity
8
0
100
AcDbCircle
10
200.00000000000014
20
618.99999999999966
30
0
40
1.6499999999999915
210
0
220
0
230
1
0
CIRCLE
5
105
100
AcDbEntity
8
0
100
AcDbCircle
10
-184.00000000000006
20
635
30
0
40
1.6499999999999915
210
0
220
0
230
1
0
CIRCLE
5
106
100
AcDbEntity
8
0
100
AcDbCircle
10
-200
20
619
30
0
40
1.6499999999999915
210
0
220
0
230
1
0
CIRCLE
5
107
100
AcDbEntity
8
0
100
AcDbCircle
10
-215.00000000000085
20
367.49999999999955
30
0
40
1.5999999999999659
210
0
220
0
230
1
0
CIRCLE
5
108
100
AcDbEntity
8
0
100
AcDbCircle
10
199.99999999999997
20
306
30
0
40
1.6500000000000004
210
0
220
0
230
1
0
CIRCLE
5
109
100
AcDbEntity
8
0
100
AcDbCircle
10
199.99999999999994
20
344
30
0
40
1.6500000000000004
210
0
220
0
230
1
0
CIRCLE
5
110
100
AcDbEntity
8
0
100
AcDbCircle
10
200.00000000000006
20
91.999999999999957
30
0
40
1.6500000000000004
210
0
220
0
230
1
0
CIRCLE
5
111
100
AcDbEntity
8
0
100
AcDbCircle
10
200.00000000000006
20
53.999999999999986
30
0
40
1.6500000000000004
210
0
220
0
230
1
0
CIRCLE
5
112
100
AcDbEntity
8
0
100
AcDbCircle
10
-215.00000000000085
20
282.49999999999955
30
0
40
1.5999999999999659
210
0
220
0
230
1
0
CIRCLE
5
113
100
AcDbEntity
8
0
100
AcDbCircle
10
200
20
558
30
0
40
1.6500000000000004
210
0
220
0
230
1
0
CIRCLE
5
114
100
AcDbEntity
8
0
100
AcDbCircle
10
200
20
596
30
0
40
1.6500000000000004
210
0
220
0
230
1
0
CIRCLE
5
115
100
AcDbEntity
8
0
100
AcDbCircle
10
-200
20
30.999999999999943
30
0
40
1.6499999999999915
210
0
220
-0
230
1
0
CIRCLE
5
116
100
AcDbEntity
8
0
100
AcDbCircle
10
-184.00000000000006
20
15
30
0
40
1.6499999999999915
210
0
220
-0
230
1
0
ENDSEC
0
SECTION
2
OBJECTS
0
DICTIONARY
5
C
100
AcDbDictionary
3
ACAD_GROUP
350
D
3
ACAD_MLINESTYLE
350
17
0
DICTIONARY
5
D
100
AcDbDictionary
0
DICTIONARY
5
1A
330
C
100
AcDbDictionary
0
DICTIONARY
5
17
100
AcDbDictionary
0
ENDSEC
0
EOF
