0
SECTION
2
HEADER
9
$INSUNITS
70
4
9
$ACADVER
1
AC1014
9
$HANDSEED
5
FFFF
0
ENDSEC
0
SECTION
2
TABLES
0
TABLE
2
VPORT
5
8
100
AcDbSymbolTable
0
ENDTAB
0
TABLE
2
LTYPE
5
5
100
AcDbSymbolTable
0
LTYPE
5
14
100
AcDbSymbolTableRecord
100
AcDbLinetypeTableRecord
2
BYBLOCK
70
0
0
LTYPE
5
15
100
AcDbSymbolTableRecord
100
AcDbLinetypeTableRecord
2
BYLAYER
70
0
0
LTYPE
5
16
100
AcDbSymbolTableRecord
100
AcDbLinetypeTableRecord
2
DASHED
70
0
3
Dashed __ __ __ __ __ __ __ __ __ __ __ __ __ _
72
65
73
2
40
0.75
49
0.5
74
0
49
-0.25
74
0
0
ENDTAB
0
TABLE
2
LAYER
5
2
100
AcDbSymbolTable
70
3
0
LAYER
5
50
100
AcDbSymbolTableRecord
100
AcDbLayerTableRecord
2
1
70
0
62
7
6
DASHED
0
LAYER
5
51
100
AcDbSymbolTableRecord
100
AcDbLayerTableRecord
2
0
70
0
62
7
6
CONTINUOUS
0
ENDTAB
0
TABLE
2
STYLE
5
3
100
AcDbSymbolTable
70
1
0
STYLE
5
11
100
AcDbSymbolTableRecord
100
AcDbTextStyleTableRecord
2
STANDARD
70
0
0
ENDTAB
0
TABLE
2
VIEW
5
6
100
AcDbSymbolTable
70
0
0
ENDTAB
0
TABLE
2
UCS
5
7
100
AcDbSymbolTable
70
0
0
ENDTAB
0
TABLE
2
APPID
5
9
100
AcDbSymbolTable
70
2
0
APPID
5
12
100
AcDbSymbolTableRecord
100
AcDbRegAppTableRecord
2
ACAD
70
0
0
ENDTAB
0
TABLE
2
DIMSTYLE
5
A
100
AcDbSymbolTable
70
1
0
ENDTAB
0
TABLE
2
BLOCK_RECORD
5
1
100
AcDbSymbolTable
70
1
0
BLOCK_RECORD
5
1F
100
AcDbSymbolTableRecord
100
AcDbBlockTableRecord
2
*MODEL_SPACE
0
BLOCK_RECORD
5
1B
100
AcDbSymbolTableRecord
100
AcDbBlockTableRecord
2
*PAPER_SPACE
0
ENDTAB
0
ENDSEC
0
SECTION
2
BLOCKS
0
BLOCK
5
20
100
AcDbEntity
100
AcDbBlockBegin
2
*MODEL_SPACE
0
ENDBLK
5
21
100
AcDbEntity
100
AcDbBlockEnd
0
BLOCK
5
1C
100
AcDbEntity
100
AcDbBlockBegin
2
*PAPER_SPACE
0
ENDBLK
5
1D
100
AcDbEntity
100
AcDbBlockEnd
0
ENDSEC
0
SECTION
2
ENTITIES
0
LWPOLYLINE
5
100
100
AcDbEntity
8
0
100
AcDbPolyline
90
46
70
1
43
0.0
10
-73.5
20
-191.49999952316284
10
-163
20
-191.4999995231629
42
-0.41421356237309503
10
-164.00000000000003
20
-190.49999952316287
10
-164
20
-184.99999952316287
42
0.41421356237309503
10
-165
20
-183.99999952316284
10
-190.5
20
-183.99999952316281
42
-0.41421356237309503
10
-191.49999999999994
20
-182.99999952316287
10
-191.50000000000003
20
119.00000047683713
42
-0.41421356237309503
10
-190.5
20
120.00000047683714
10
-185
20
120.00000047683714
42
0.043660942908513724
10
-181.35338826899397
20
120.31903766358091
10
-136.35449116344188
20
128.25355732541337
42
0.31529878887900642
10
-133.10985286206051
20
131.49819562679505
10
-124.3190371867437
20
181.3533887458311
42
0.043660942908518206
10
-124
20
185.00000047683713
10
-123.99999999999994
20
190.50000047683713
42
-0.41421356237309503
10
-123
20
191.50000047683707
10
123
20
191.5000004768371
42
-0.41421356237309503
10
124
20
190.50000047683713
10
123.99999999999999
20
185.00000047683713
42
0.043660942908518525
10
124.31903718674349
20
181.35338874583101
10
133.10985286206102
20
131.49819562679514
42
0.31529878887900642
10
136.35449116344193
20
128.25355732541377
10
181.35338826899485
20
120.31903766358029
42
0.043660942908504273
10
185
20
120.00000047683714
10
190.5
20
120.00000047683707
42
-0.41421356237310542
10
191.49999999999994
20
119.0000004768371
10
191.5
20
-182.99999952316287
42
-0.41421356237309503
10
190.5
20
-183.99999952316284
10
165
20
-183.99999952316284
42
0.41421356237309503
10
164.00000000000003
20
-184.99999952316287
10
164
20
-190.49999952316287
42
-0.41421356237309503
10
163
20
-191.49999952316284
10
43.999999999999986
20
-191.49999952316284
42
-0.4142135623730942
10
41.000000000000007
20
-188.4999995231629
10
41.000000000000007
20
-184.99999952316287
42
0.076506905504387962
10
40.028055965712909
20
-178.68517773357283
10
26.663170458635022
20
-136.29717632514581
42
0.32733339675443063
10
22.848302655642101
20
-133.49999952316287
10
-22.848302655642101
20
-133.49999952316287
42
0.32733339675443085
10
-26.663170458634919
20
-136.29717632514587
10
-34.641565043646395
20
-161.60141112217093
42
-0.32733339675449896
10
-36.548998945142998
20
-162.99999952316287
10
-67.5
20
-162.99999952316287
42
0.41421356237309503
10
-70.5
20
-165.9999995231629
10
-70.500000000000028
20
-188.4999995231629
42
-0.41421356237309503
0
ENDSEC
0
SECTION
2
OBJECTS
0
DICTIONARY
5
C
100
AcDbDictionary
3
ACAD_GROUP
350
D
3
ACAD_MLINESTYLE
350
17
0
DICTIONARY
5
D
100
AcDbDictionary
0
DICTIONARY
5
1A
330
C
100
AcDbDictionary
0
DICTIONARY
5
17
100
AcDbDictionary
0
ENDSEC
0
EOF
