0
SECTION
2
HEADER
9
$INSUNITS
70
4
9
$ACADVER
1
AC1014
9
$HANDSEED
5
FFFF
0
ENDSEC
0
SECTION
2
TABLES
0
TABLE
2
VPORT
5
8
100
AcDbSymbolTable
0
ENDTAB
0
TABLE
2
LTYPE
5
5
100
AcDbSymbolTable
0
LTYPE
5
14
100
AcDbSymbolTableRecord
100
AcDbLinetypeTableRecord
2
BYBLOCK
70
0
0
LTYPE
5
15
100
AcDbSymbolTableRecord
100
AcDbLinetypeTableRecord
2
BYLAYER
70
0
0
LTYPE
5
16
100
AcDbSymbolTableRecord
100
AcDbLinetypeTableRecord
2
DASHED
70
0
3
Dashed __ __ __ __ __ __ __ __ __ __ __ __ __ _
72
65
73
2
40
0.75
49
0.5
74
0
49
-0.25
74
0
0
ENDTAB
0
TABLE
2
LAYER
5
2
100
AcDbSymbolTable
70
3
0
LAYER
5
50
100
AcDbSymbolTableRecord
100
AcDbLayerTableRecord
2
1
70
0
62
7
6
DASHED
0
LAYER
5
51
100
AcDbSymbolTableRecord
100
AcDbLayerTableRecord
2
0
70
0
62
7
6
CONTINUOUS
0
ENDTAB
0
TABLE
2
STYLE
5
3
100
AcDbSymbolTable
70
1
0
STYLE
5
11
100
AcDbSymbolTableRecord
100
AcDbTextStyleTableRecord
2
STANDARD
70
0
0
ENDTAB
0
TABLE
2
VIEW
5
6
100
AcDbSymbolTable
70
0
0
ENDTAB
0
TABLE
2
UCS
5
7
100
AcDbSymbolTable
70
0
0
ENDTAB
0
TABLE
2
APPID
5
9
100
AcDbSymbolTable
70
2
0
APPID
5
12
100
AcDbSymbolTableRecord
100
AcDbRegAppTableRecord
2
ACAD
70
0
0
ENDTAB
0
TABLE
2
DIMSTYLE
5
A
100
AcDbSymbolTable
70
1
0
ENDTAB
0
TABLE
2
BLOCK_RECORD
5
1
100
AcDbSymbolTable
70
1
0
BLOCK_RECORD
5
1F
100
AcDbSymbolTableRecord
100
AcDbBlockTableRecord
2
*MODEL_SPACE
0
BLOCK_RECORD
5
1B
100
AcDbSymbolTableRecord
100
AcDbBlockTableRecord
2
*PAPER_SPACE
0
ENDTAB
0
ENDSEC
0
SECTION
2
BLOCKS
0
BLOCK
5
20
100
AcDbEntity
100
AcDbBlockBegin
2
*MODEL_SPACE
0
ENDBLK
5
21
100
AcDbEntity
100
AcDbBlockEnd
0
BLOCK
5
1C
100
AcDbEntity
100
AcDbBlockBegin
2
*PAPER_SPACE
0
ENDBLK
5
1D
100
AcDbEntity
100
AcDbBlockEnd
0
ENDSEC
0
SECTION
2
ENTITIES
0
LWPOLYLINE
5
100
100
AcDbEntity
8
0
100
AcDbPolyline
90
46
70
1
43
0.0
10
-73.5
20
-264
10
-227
20
-264
42
-0.41421356237309503
10
-228
20
-263
10
-228
20
-257.5
42
0.41421356237309503
10
-229.00000000000003
20
-256.5
10
-254.5
20
-256.49999999999994
42
-0.41421356237309503
10
-255.49999999999994
20
-255.5
10
-255.5
20
191.5
42
-0.41421356237309503
10
-254.5
20
192.5
10
-249
20
192.49999999999949
42
0.043660942908497702
10
-245.35338826899493
20
192.8190371867436
10
-200.35449116344205
20
200.7535568485772
42
0.31529878887894969
10
-197.1098528620615
20
203.99819514995809
10
-188.31903718674454
20
253.8533882689951
42
0.043660942908506674
10
-188
20
257.5
10
-187.99999999999994
20
263
42
-0.41421356237309503
10
-187
20
263.99999999999994
10
187
20
264
42
-0.41421356237309503
10
188
20
263
10
188.00000000000028
20
257.5
42
0.043660942908496106
10
188.31903718674428
20
253.85338826899505
10
197.10985286206127
20
203.99819514995806
42
0.31529878887894947
10
200.35449116344193
20
200.75355684857664
10
245.35338826899482
20
192.819037186743
42
0.043660942908497861
10
249
20
192.5
10
254.5
20
192.49999999999997
42
-0.41421356237309503
10
255.49999999999997
20
191.5
10
255.5
20
-255.5
42
-0.41421356237309503
10
254.5
20
-256.5
10
229.00000000000003
20
-256.5
42
0.41421356237309503
10
228
20
-257.5
10
228
20
-263
42
-0.41421356237309503
10
227
20
-264
10
44.000000000000021
20
-264
42
-0.41421356237309764
10
41.000000000000007
20
-261
10
41
20
-257.5
42
0.076506905504378123
10
40.028055965713193
20
-251.18517821041087
10
26.663170458634976
20
-208.79717680198297
42
0.32733339675443085
10
22.848302655642101
20
-205.99999999999997
10
-22.848302655642101
20
-206
42
0.32733339675443202
10
-26.663170458634919
20
-208.797176801983
10
-34.641565043646715
20
-234.10141159900894
42
-0.3273333967543679
10
-36.548998945142998
20
-235.49999999999997
10
-67.5
20
-235.49999999999997
42
0.41421356237309503
10
-70.499999999999986
20
-238.49999999999997
10
-70.499999999999986
20
-261
42
-0.41421356237309592
0
ENDSEC
0
SECTION
2
OBJECTS
0
DICTIONARY
5
C
100
AcDbDictionary
3
ACAD_GROUP
350
D
3
ACAD_MLINESTYLE
350
17
0
DICTIONARY
5
D
100
AcDbDictionary
0
DICTIONARY
5
1A
330
C
100
AcDbDictionary
0
DICTIONARY
5
17
100
AcDbDictionary
0
ENDSEC
0
EOF
