0
SECTION
2
HEADER
9
$INSUNITS
70
4
9
$ACADVER
1
AC1014
9
$HANDSEED
5
FFFF
0
ENDSEC
0
SECTION
2
TABLES
0
TABLE
2
VPORT
5
8
100
AcDbSymbolTable
0
ENDTAB
0
TABLE
2
LTYPE
5
5
100
AcDbSymbolTable
0
LTYPE
5
14
100
AcDbSymbolTableRecord
100
AcDbLinetypeTableRecord
2
BYBLOCK
70
0
0
LTYPE
5
15
100
AcDbSymbolTableRecord
100
AcDbLinetypeTableRecord
2
BYLAYER
70
0
0
LTYPE
5
16
100
AcDbSymbolTableRecord
100
AcDbLinetypeTableRecord
2
DASHED
70
0
3
Dashed __ __ __ __ __ __ __ __ __ __ __ __ __ _
72
65
73
2
40
0.75
49
0.5
74
0
49
-0.25
74
0
0
ENDTAB
0
TABLE
2
LAYER
5
2
100
AcDbSymbolTable
70
3
0
LAYER
5
50
100
AcDbSymbolTableRecord
100
AcDbLayerTableRecord
2
1
70
0
62
7
6
DASHED
0
LAYER
5
51
100
AcDbSymbolTableRecord
100
AcDbLayerTableRecord
2
0
70
0
62
7
6
CONTINUOUS
0
ENDTAB
0
TABLE
2
STYLE
5
3
100
AcDbSymbolTable
70
1
0
STYLE
5
11
100
AcDbSymbolTableRecord
100
AcDbTextStyleTableRecord
2
STANDARD
70
0
0
ENDTAB
0
TABLE
2
VIEW
5
6
100
AcDbSymbolTable
70
0
0
ENDTAB
0
TABLE
2
UCS
5
7
100
AcDbSymbolTable
70
0
0
ENDTAB
0
TABLE
2
APPID
5
9
100
AcDbSymbolTable
70
2
0
APPID
5
12
100
AcDbSymbolTableRecord
100
AcDbRegAppTableRecord
2
ACAD
70
0
0
ENDTAB
0
TABLE
2
DIMSTYLE
5
A
100
AcDbSymbolTable
70
1
0
ENDTAB
0
TABLE
2
BLOCK_RECORD
5
1
100
AcDbSymbolTable
70
1
0
BLOCK_RECORD
5
1F
100
AcDbSymbolTableRecord
100
AcDbBlockTableRecord
2
*MODEL_SPACE
0
BLOCK_RECORD
5
1B
100
AcDbSymbolTableRecord
100
AcDbBlockTableRecord
2
*PAPER_SPACE
0
ENDTAB
0
ENDSEC
0
SECTION
2
BLOCKS
0
BLOCK
5
20
100
AcDbEntity
100
AcDbBlockBegin
2
*MODEL_SPACE
0
ENDBLK
5
21
100
AcDbEntity
100
AcDbBlockEnd
0
BLOCK
5
1C
100
AcDbEntity
100
AcDbBlockBegin
2
*PAPER_SPACE
0
ENDBLK
5
1D
100
AcDbEntity
100
AcDbBlockEnd
0
ENDSEC
0
SECTION
2
ENTITIES
0
CIRCLE
5
100
100
AcDbEntity
8
0
100
AcDbCircle
10
-6.1000000000000654
20
357.50000000000006
30
0
40
1.6499999999999915
210
0
220
-0
230
1
0
CIRCLE
5
101
100
AcDbEntity
8
0
100
AcDbCircle
10
-6.1000000000000654
20
442.50000000000006
30
0
40
1.6499999999999915
210
0
220
-0
230
1
0
CIRCLE
5
102
100
AcDbEntity
8
0
100
AcDbCircle
10
-264
20
746.00000000000023
30
0
40
1.6500000000000004
210
0
220
-0
230
1
0
CIRCLE
5
103
100
AcDbEntity
8
0
100
AcDbCircle
10
-264
20
708.00000000000011
30
0
40
1.6500000000000004
210
0
220
-0
230
1
0
CIRCLE
5
104
100
AcDbEntity
8
0
100
AcDbCircle
10
-263.99999999999989
20
418.9999999999992
30
0
40
1.6500000000000004
210
0
220
-0
230
1
0
CIRCLE
5
105
100
AcDbEntity
8
0
100
AcDbCircle
10
-264.00000000000011
20
91.999999999997698
30
0
40
1.6500000000000004
210
0
220
-0
230
1
0
CIRCLE
5
106
100
AcDbEntity
8
0
100
AcDbCircle
10
-264.00000000000011
20
53.999999999997719
30
0
40
1.6500000000000004
210
0
220
-0
230
1
0
CIRCLE
5
107
100
AcDbEntity
8
0
100
AcDbCircle
10
-263.99999999999994
20
380.9999999999992
30
0
40
1.6500000000000004
210
0
220
-0
230
1
0
LWPOLYLINE
5
108
100
AcDbEntity
8
0
100
AcDbPolyline
90
48
70
1
43
0.0
10
-25.225000000000577
20
3.0000000000000355
10
-250.87499999999949
20
3.0000000000000213
42
-0.41421356237309309
10
-252.87499999999949
20
5
10
-252.87499999999952
20
18.125
42
0.41421356237309553
10
-260.87499999999949
20
26.124999999999986
10
-274
20
26.124999999999972
42
-0.41421356237309503
10
-276.00000000000006
20
28.125
10
-276.00000000000006
20
44.999999999997797
42
-0.41421356237309631
10
-274.00000000000006
20
46.999999999997797
10
-273.00000000000006
20
46.999999999997797
42
0.41421356237309631
10
-271.00000000000006
20
48.999999999997797
10
-271
20
96.999999999997627
42
0.41421356237310281
10
-273.00000000000006
20
98.999999999997641
10
-274.00000000000006
20
98.999999999997641
42
-0.41421356237309764
10
-276.00000000000006
20
100.99999999999766
10
-276.00000000000011
20
371.99999999999909
42
-0.41421356237307422
10
-274.00000000000006
20
373.99999999999915
10
-273.00000000000006
20
373.99999999999909
42
0.41421356237309503
10
-271.00000000000011
20
375.99999999999909
10
-271.00000000000006
20
423.99999999999892
42
0.41421356237309503
10
-273.00000000000006
20
425.99999999999898
10
-273.99999999999989
20
425.99999999999898
42
-0.41421356237310025
10
-275.99999999999994
20
427.99999999999898
10
-275.99999999999983
20
699.00000000000023
42
-0.41421356237307944
10
-273.99999999999989
20
701.00000000000023
10
-273
20
701.00000000000023
42
0.41421356237313145
10
-271
20
703.00000000000023
10
-271
20
751.00000000000011
42
0.4142135623730534
10
-273.00000000000017
20
753.00000000000023
10
-274
20
753.00000000000011
42
-0.41421356237312623
10
-276
20
755.00000000000023
10
-276
20
771.87500000000011
42
-0.41421356237309503
10
-274
20
773.87500000000023
10
-260.87499999999949
20
773.87500000000023
42
0.41421356237309503
10
-252.87499999999952
20
781.87500000000011
10
-252.87499999999952
20
795.00000000000011
42
-0.41421356237308982
10
-250.87499999999952
20
797.00000000000023
10
-25.225000000000577
20
797.00000000000023
42
-0.414213562373069
10
-23.225000000000584
20
795.00000000000023
10
-23.225000000000577
20
781.87500000000011
42
0.41421356237309503
10
-15.225000000000612
20
773.87500000000023
10
-2.1000000000000529
20
773.87500000000023
42
-0.41421356237309115
10
-0.10000000000005116
20
771.87500000000011
10
-0.10000000000005116
20
28.125
42
-0.41421356237309126
10
-2.1000000000000529
20
26.124999999999972
10
-15.225000000000612
20
26.124999999999972
42
0.41421356237309515
10
-23.225000000000584
20
18.124999999999996
10
-23.225000000000584
20
5.0000000000000355
42
-0.41421356237308582
0
CIRCLE
5
109
100
AcDbEntity
8
0
100
AcDbCircle
10
-264.00000000000006
20
30.999999999999943
30
0
40
1.6499999999999915
210
0
220
-0
230
1
0
CIRCLE
5
110
100
AcDbEntity
8
0
100
AcDbCircle
10
-247.99999999999949
20
14.999999999998721
30
0
40
1.6499999999999915
210
0
220
-0
230
1
0
CIRCLE
5
111
100
AcDbEntity
8
0
100
AcDbCircle
10
-12.100000000000044
20
30.999999999999943
30
0
40
1.6499999999999915
210
0
220
-0
230
1
0
CIRCLE
5
112
100
AcDbEntity
8
0
100
AcDbCircle
10
-28.100000000000627
20
14.999999999998721
30
0
40
1.6499999999999915
210
0
220
-0
230
1
0
CIRCLE
5
113
100
AcDbEntity
8
0
100
AcDbCircle
10
-247.99999999999949
20
785.00000000000136
30
0
40
1.6499999999999915
210
0
220
-0
230
1
0
CIRCLE
5
114
100
AcDbEntity
8
0
100
AcDbCircle
10
-264.00000000000006
20
769.00000000000023
30
0
40
1.6499999999999915
210
0
220
-0
230
1
0
CIRCLE
5
115
100
AcDbEntity
8
0
100
AcDbCircle
10
-12.100000000000044
20
769.00000000000023
30
0
40
1.6499999999999915
210
0
220
-0
230
1
0
CIRCLE
5
116
100
AcDbEntity
8
0
100
AcDbCircle
10
-28.100000000000627
20
785.00000000000136
30
0
40
1.6499999999999915
210
0
220
-0
230
1
0
ENDSEC
0
SECTION
2
OBJECTS
0
DICTIONARY
5
C
100
AcDbDictionary
3
ACAD_GROUP
350
D
3
ACAD_MLINESTYLE
350
17
0
DICTIONARY
5
D
100
AcDbDictionary
0
DICTIONARY
5
1A
330
C
100
AcDbDictionary
0
DICTIONARY
5
17
100
AcDbDictionary
0
ENDSEC
0
EOF
