0
SECTION
2
HEADER
9
$INSUNITS
70
4
9
$ACADVER
1
AC1014
9
$HANDSEED
5
FFFF
0
ENDSEC
0
SECTION
2
TABLES
0
TABLE
2
VPORT
5
8
100
AcDbSymbolTable
0
ENDTAB
0
TABLE
2
LTYPE
5
5
100
AcDbSymbolTable
0
LTYPE
5
14
100
AcDbSymbolTableRecord
100
AcDbLinetypeTableRecord
2
BYBLOCK
70
0
0
LTYPE
5
15
100
AcDbSymbolTableRecord
100
AcDbLinetypeTableRecord
2
BYLAYER
70
0
0
LTYPE
5
16
100
AcDbSymbolTableRecord
100
AcDbLinetypeTableRecord
2
DASHED
70
0
3
Dashed __ __ __ __ __ __ __ __ __ __ __ __ __ _
72
65
73
2
40
0.75
49
0.5
74
0
49
-0.25
74
0
0
ENDTAB
0
TABLE
2
LAYER
5
2
100
AcDbSymbolTable
70
3
0
LAYER
5
50
100
AcDbSymbolTableRecord
100
AcDbLayerTableRecord
2
1
70
0
62
7
6
DASHED
0
LAYER
5
51
100
AcDbSymbolTableRecord
100
AcDbLayerTableRecord
2
0
70
0
62
7
6
CONTINUOUS
0
ENDTAB
0
TABLE
2
STYLE
5
3
100
AcDbSymbolTable
70
1
0
STYLE
5
11
100
AcDbSymbolTableRecord
100
AcDbTextStyleTableRecord
2
STANDARD
70
0
0
ENDTAB
0
TABLE
2
VIEW
5
6
100
AcDbSymbolTable
70
0
0
ENDTAB
0
TABLE
2
UCS
5
7
100
AcDbSymbolTable
70
0
0
ENDTAB
0
TABLE
2
APPID
5
9
100
AcDbSymbolTable
70
2
0
APPID
5
12
100
AcDbSymbolTableRecord
100
AcDbRegAppTableRecord
2
ACAD
70
0
0
ENDTAB
0
TABLE
2
DIMSTYLE
5
A
100
AcDbSymbolTable
70
1
0
ENDTAB
0
TABLE
2
BLOCK_RECORD
5
1
100
AcDbSymbolTable
70
1
0
BLOCK_RECORD
5
1F
100
AcDbSymbolTableRecord
100
AcDbBlockTableRecord
2
*MODEL_SPACE
0
BLOCK_RECORD
5
1B
100
AcDbSymbolTableRecord
100
AcDbBlockTableRecord
2
*PAPER_SPACE
0
ENDTAB
0
ENDSEC
0
SECTION
2
BLOCKS
0
BLOCK
5
20
100
AcDbEntity
100
AcDbBlockBegin
2
*MODEL_SPACE
0
ENDBLK
5
21
100
AcDbEntity
100
AcDbBlockEnd
0
BLOCK
5
1C
100
AcDbEntity
100
AcDbBlockBegin
2
*PAPER_SPACE
0
ENDBLK
5
1D
100
AcDbEntity
100
AcDbBlockEnd
0
ENDSEC
0
SECTION
2
ENTITIES
0
LWPOLYLINE
5
100
100
AcDbEntity
8
0
100
AcDbPolyline
90
4
70
1
43
0.0
10
225.15000000000001
20
-285.74999999999994
10
223.14999999999998
20
-285.74999999999994
42
0.99999999999999989
10
223.14999999999998
20
-289.25
10
225.15000000000001
20
-289.25
42
0.99999999999999989
0
LWPOLYLINE
5
101
100
AcDbEntity
8
0
100
AcDbPolyline
90
4
70
1
43
0.0
10
223.15000000000009
20
-261.75
10
225.14999999999998
20
-261.75
42
0.99999999999999989
10
225.14999999999998
20
-258.25
10
223.15000000000009
20
-258.25
42
0.99999999999999989
0
LWPOLYLINE
5
102
100
AcDbEntity
8
0
100
AcDbPolyline
90
4
70
1
43
0.0
10
-21.780253405868983
20
-261.75000000000017
10
-19.780253405868915
20
-261.75
42
0.99999999999999989
10
-19.780253405869018
20
-258.24999999999994
10
-21.780253405869082
20
-258.25000000000017
42
0.99999999999999989
0
LWPOLYLINE
5
103
100
AcDbEntity
8
0
100
AcDbPolyline
90
4
70
1
43
0.0
10
-225.14999999999992
20
-261.75
10
-223.15000000000003
20
-261.75
42
0.99999999999999989
10
-223.15000000000003
20
-258.25
10
-225.14999999999992
20
-258.25
42
0.99999999999999989
0
LWPOLYLINE
5
104
100
AcDbEntity
8
0
100
AcDbPolyline
90
4
70
1
43
0.0
10
19.780253405868969
20
-261.75
10
21.780253405868848
20
-261.75
42
0.99999999999999989
10
21.780253405868852
20
-258.25
10
19.780253405868965
20
-258.25
42
0.99999999999999989
0
LWPOLYLINE
5
105
100
AcDbEntity
8
0
100
AcDbPolyline
90
4
70
1
43
0.0
10
-19.780253405868791
20
-285.74999999999994
10
-21.780253405868805
20
-285.74999999999994
42
0.99999999999999989
10
-21.780253405868795
20
-289.25
10
-19.780253405868791
20
-289.25
42
0.99999999999999989
0
LWPOLYLINE
5
106
100
AcDbEntity
8
0
100
AcDbPolyline
90
4
70
1
43
0.0
10
-223.14999999999998
20
-285.74999999999994
10
-225.15000000000001
20
-285.74999999999994
42
0.99999999999999989
10
-225.15000000000001
20
-289.25
10
-223.14999999999998
20
-289.25
42
0.99999999999999989
0
LWPOLYLINE
5
107
100
AcDbEntity
8
0
100
AcDbPolyline
90
4
70
1
43
0.0
10
-278.25
20
-234.14999999999998
10
-278.25
20
-236.15000000000003
42
0.99999999999999989
10
-274.75000000000006
20
-236.15000000000003
10
-274.75000000000006
20
-234.14999999999998
42
0.99999999999999989
0
LWPOLYLINE
5
108
100
AcDbEntity
8
0
100
AcDbPolyline
90
4
70
1
43
0.0
10
278.25
20
-236.15000000000003
10
278.25
20
-234.14999999999998
42
0.99999999999999989
10
274.75000000000006
20
-234.14999999999998
10
274.75000000000006
20
-236.15000000000003
42
0.99999999999999989
0
LWPOLYLINE
5
109
100
AcDbEntity
8
0
100
AcDbPolyline
90
4
70
1
43
0.0
10
21.780253405868805
20
-285.74999999999994
10
19.780253405868791
20
-285.74999999999994
42
0.99999999999999989
10
19.780253405868791
20
-289.25
10
21.780253405868795
20
-289.25
42
0.99999999999999989
0
LWPOLYLINE
5
110
100
AcDbEntity
8
0
100
AcDbPolyline
90
48
70
1
43
0.0
10
283.25
20
-239.25
42
0.41421356237310542
10
285.25
20
-237.24999999999997
10
285.25000000000011
20
-196.25000000000017
42
0.41421356237309503
10
283.25
20
-194.25000000000009
10
270.25
20
-194.25
42
0.41421356237310542
10
268.25
20
-196.25
10
268.24999999999949
20
-221.05774315233401
42
-0.2978179788460717
10
267.05268365239851
20
-222.88959984819488
42
0.18839084225726158
10
256.88959984819564
20
-233.05268365239786
42
-0.29781797884618982
10
255.05774315233398
20
-234.24999999999997
10
230.25000000000003
20
-234.24999999999997
42
0.41421356237309503
10
228.25000000000003
20
-236.24999999999997
10
228.25
20
-249.25
42
-0.41421356237309503
10
226.25
20
-251.25
10
-226.25
20
-251.25
42
-0.41421356237309503
10
-228.25
20
-249.25
10
-228.25
20
-236.24999999999997
42
0.41421356237310542
10
-230.25000000000003
20
-234.24999999999994
10
-255.05774315233398
20
-234.2499999999994
42
-0.29781797884618272
10
-256.88959984819513
20
-233.05268365239769
42
0.18839084225725095
10
-267.05268365239783
20
-222.88959984819567
42
-0.2978179788461966
10
-268.25
20
-221.05774315233401
10
-268.25
20
-196.25
42
0.41421356237310542
10
-270.25
20
-194.25
10
-283.25
20
-194.25
42
0.41421356237312101
10
-285.25
20
-196.24999999999986
10
-285.25
20
-237.24999999999997
42
0.41421356237309503
10
-283.25
20
-239.24999999999997
10
-270.25
20
-239.25
42
-0.41421356237309503
10
-268.25
20
-241.25
10
-268.25
20
-266.05774315233401
42
0.29781797884613764
10
-267.05268365239823
20
-267.88959984819547
42
-0.18839084225725566
10
-256.88959984819519
20
-278.0526836523976
42
0.29781797884619543
10
-255.05774315233398
20
-279.24999999999943
10
-230.25000000000003
20
-279.25
42
-0.41421356237309503
10
-228.25
20
-281.25
10
-228.25
20
-294.25
42
0.41421356237309503
10
-226.25
20
-296.25
10
226.25
20
-296.25
42
0.41421356237309503
10
228.25
20
-294.25
10
228.25000000000003
20
-281.25
42
-0.41421356237309503
10
230.25000000000003
20
-279.25
10
255.05774315233398
20
-279.25
42
0.29781797884618827
10
256.88959984819479
20
-278.05268365239749
42
-0.18839084225726196
10
267.05268365239783
20
-267.88959984819462
42
0.29781797884613298
10
268.24999999999903
20
-266.05774315233401
10
268.25
20
-241.25
42
-0.41421356237309503
10
270.25
20
-239.25
0
ENDSEC
0
SECTION
2
OBJECTS
0
DICTIONARY
5
C
100
AcDbDictionary
3
ACAD_GROUP
350
D
3
ACAD_MLINESTYLE
350
17
0
DICTIONARY
5
D
100
AcDbDictionary
0
DICTIONARY
5
1A
330
C
100
AcDbDictionary
0
DICTIONARY
5
17
100
AcDbDictionary
0
ENDSEC
0
EOF
